# File created by Blade
# Date/Time:  Tue Apr 07 21:33:03 2015
# Frame Rate: 120.000 fps
#------------------------------------------------------
:FULLY-SPECIFIED
:DEGREES
513
root 37.543816 32.063018 -20.549695 17.791058 -65.762733 -2.042420
Spine -10.607769 -4.470682 2.654475
Head 15.134747 -2.926386 -0.300629
LeftShoulder -17.778056 46.723419 5.777105
LeftArm 50.884893 4.864186 -87.255053
LeftForeArm 5.889017 -0.000000 16.530675
LeftHand 7.421211 -0.000000 -9.958732
LeftHandThumb1 -26.253704 0.000000 33.147579
RightShoulder -3.682297 -9.423115 -17.009865
RightArm 13.922833 -15.203563 87.839957
RightForeArm 3.758285 -0.000000 23.719465
RightHand 6.116590 0.000000 6.374549
RightHandThumb1 -24.326973 -0.000000 -32.862282
LeftUpLeg -20.660734 -4.146056 1.362783
LeftLeg 30.516120 -0.000000 -0.000000
LeftFoot -10.065042 4.702249 -21.675449
LeftToeBase -24.230453 -0.000000 0.000000
RightUpLeg -15.843186 -1.154843 6.483780
RightLeg 7.099105 -0.000000 -0.000000
RightFoot -14.712050 -4.711412 22.346336
RightToeBase -2.949096 -0.000000 0.000000
514
root 37.550615 32.060538 -20.560359 17.955707 -65.805146 -2.297407
Spine -10.621729 -4.401155 2.764702
Head 15.122298 -2.882070 -0.376696
LeftShoulder -17.808128 46.705679 5.737717
LeftArm 50.825687 4.742899 -87.317528
LeftForeArm 5.756692 -0.000000 16.642874
LeftHand 7.363882 -0.000000 -9.893060
LeftHandThumb1 -26.253704 0.000000 33.147579
RightShoulder -3.716904 -9.510489 -17.010229
RightArm 13.895079 -15.336439 87.891222
RightForeArm 3.950027 -0.000000 23.448220
RightHand 6.167906 -0.000000 6.295397
RightHandThumb1 -24.326973 -0.000000 -32.862282
LeftUpLeg -20.500776 -4.066481 1.437076
LeftLeg 30.297320 -0.000000 -0.000000
LeftFoot -10.424817 4.829073 -21.991881
LeftToeBase -24.029191 -0.000000 0.000000
RightUpLeg -15.701467 -1.115884 6.597583
RightLeg 6.900079 -0.000000 -0.000000
RightFoot -14.593538 -4.812746 22.246986
RightToeBase -2.830329 -0.000000 0.000000
515
root 37.555540 32.057485 -20.567532 18.039118 -65.846338 -2.480732
Spine -10.618545 -4.358828 2.844027
Head 15.109928 -2.818257 -0.441442
LeftShoulder -17.857062 46.682093 5.703888
LeftArm 50.756085 4.662336 -87.377731
LeftForeArm 5.573635 -0.000000 16.753183
LeftHand 7.309389 -0.000000 -9.683760
LeftHandThumb1 -26.253704 0.000000 33.147579
RightShoulder -3.741506 -9.558809 -17.010391
RightArm 13.849489 -15.502559 87.942090
RightForeArm 4.216118 -0.000000 23.163533
RightHand 6.149285 -0.000000 6.245442
RightHandThumb1 -24.326973 -0.000000 -32.862282
LeftUpLeg -20.306948 -4.106520 1.519844
LeftLeg 30.039413 -0.000000 -0.000000
LeftFoot -10.752464 4.945591 -22.220038
LeftToeBase -23.629009 -0.000000 0.000000
RightUpLeg -15.531944 -1.153471 6.695934
RightLeg 6.661683 -0.000000 -0.000000
RightFoot -14.479938 -4.880308 22.068068
RightToeBase -3.027045 -0.000000 0.000000
516
root 37.565696 32.056708 -20.572738 18.059998 -65.893962 -2.564716
Spine -10.631176 -4.310370 2.881958
Head 15.075900 -2.761387 -0.495261
LeftShoulder -17.949947 46.744058 5.605595
LeftArm 50.798389 4.571735 -87.412754
LeftForeArm 5.464371 -0.000000 16.861184
LeftHand 7.368458 -0.000000 -9.713793
LeftHandThumb1 -26.253704 0.000000 33.147579
RightShoulder -3.767794 -9.613630 -16.998091
RightArm 13.822252 -15.637065 87.974390
RightForeArm 4.337438 -0.000000 22.876094
RightHand 6.105877 -0.000000 6.241968
RightHandThumb1 -24.326973 -0.000000 -32.862282
LeftUpLeg -20.170056 -4.242845 1.588896
LeftLeg 29.823082 -0.000000 -0.000000
LeftFoot -10.906443 4.941684 -22.371621
LeftToeBase -23.474261 -0.000000 0.000000
RightUpLeg -15.403066 -1.133354 6.732604
RightLeg 6.451589 -0.000000 -0.000000
RightFoot -14.359586 -4.986584 21.931941
RightToeBase -2.932246 -0.000000 0.000000
517
root 37.573622 32.059237 -20.575369 18.037933 -65.923869 -2.529271
Spine -10.721516 -4.407794 2.891241
Head 15.031982 -2.582006 -0.522348
LeftShoulder -18.216960 46.758740 5.395407
LeftArm 50.764529 4.515423 -87.415227
LeftForeArm 5.205748 0.000000 17.020237
LeftHand 7.208517 -0.000000 -9.668389
LeftHandThumb1 -26.253704 0.000000 33.147579
RightShoulder -3.988219 -9.766036 -16.928139
RightArm 14.220355 -16.171180 87.814937
RightForeArm 4.624715 -0.000000 22.248552
RightHand 6.143379 -0.000000 6.395630
RightHandThumb1 -24.326973 -0.000000 -32.862282
LeftUpLeg -20.118096 -4.415902 1.640455
LeftLeg 29.679719 -0.000000 -0.000000
LeftFoot -10.868405 4.822908 -22.393831
LeftToeBase -23.466128 -0.000000 0.000000
RightUpLeg -15.329843 -1.191682 6.741361
RightLeg 6.224471 -0.000000 -0.000000
RightFoot -14.209819 -5.050559 21.829000
RightToeBase -2.724008 -0.000000 0.000000
